<svg width="32" height="32" viewBox="0 0 32 32" fill="none" xmlns="http://www.w3.org/2000/svg">
<path fill-rule="evenodd" clip-rule="evenodd" d="M9.29196 3.29208C9.38485 3.19895 9.4952 3.12507 9.61669 3.07465C9.73818 3.02424 9.86842 2.99829 9.99996 2.99829C10.1315 2.99829 10.2617 3.02424 10.3832 3.07465C10.5047 3.12507 10.6151 3.19895 10.708 3.29208L22.708 15.2921C22.8011 15.385 22.875 15.4953 22.9254 15.6168C22.9758 15.7383 23.0017 15.8685 23.0017 16.0001C23.0017 16.1316 22.9758 16.2619 22.9254 16.3833C22.875 16.5048 22.8011 16.6152 22.708 16.7081L10.708 28.7081C10.5202 28.8959 10.2655 29.0013 9.99996 29.0013C9.7344 29.0013 9.47973 28.8959 9.29196 28.7081C9.10418 28.5203 8.99869 28.2656 8.99869 28.0001C8.99869 27.7345 9.10418 27.4799 9.29196 27.2921L20.586 16.0001L9.29196 4.70808C9.19883 4.61519 9.12494 4.50484 9.07453 4.38335C9.02412 4.26186 8.99817 4.13161 8.99817 4.00008C8.99817 3.86854 9.02412 3.7383 9.07453 3.61681C9.12494 3.49532 9.19883 3.38497 9.29196 3.29208Z" fill="#151515"/>
</svg>
