<svg width="32" height="32" viewBox="0 0 32 32" fill="none" xmlns="http://www.w3.org/2000/svg">
<path fill-rule="evenodd" clip-rule="evenodd" d="M22.708 3.29208C22.6152 3.19895 22.5048 3.12507 22.3833 3.07465C22.2618 3.02424 22.1316 2.99829 22 2.99829C21.8685 2.99829 21.7383 3.02424 21.6168 3.07465C21.4953 3.12507 21.3849 3.19895 21.292 3.29208L9.29204 15.2921C9.19892 15.385 9.12503 15.4953 9.07462 15.6168C9.02421 15.7383 8.99826 15.8685 8.99826 16.0001C8.99826 16.1316 9.02421 16.2619 9.07462 16.3833C9.12503 16.5048 9.19892 16.6152 9.29204 16.7081L21.292 28.7081C21.4798 28.8959 21.7345 29.0013 22 29.0013C22.2656 29.0013 22.5203 28.8959 22.708 28.7081C22.8958 28.5203 23.0013 28.2656 23.0013 28.0001C23.0013 27.7345 22.8958 27.4799 22.708 27.2921L11.414 16.0001L22.708 4.70808C22.8012 4.61519 22.8751 4.50484 22.9255 4.38335C22.9759 4.26186 23.0018 4.13161 23.0018 4.00008C23.0018 3.86854 22.9759 3.7383 22.9255 3.61681C22.8751 3.49532 22.8012 3.38497 22.708 3.29208Z" fill="#151515"/>
</svg>
