<svg width="32" height="32" viewBox="0 0 32 32" fill="none" xmlns="http://www.w3.org/2000/svg">
<path fill-rule="evenodd" clip-rule="evenodd" d="M9.29196 3.29199C9.38485 3.19886 9.4952 3.12497 9.61669 3.07456C9.73818 3.02415 9.86842 2.9982 9.99996 2.9982C10.1315 2.9982 10.2617 3.02415 10.3832 3.07456C10.5047 3.12497 10.6151 3.19886 10.708 3.29199L22.708 15.292C22.8011 15.3849 22.875 15.4952 22.9254 15.6167C22.9758 15.7382 23.0017 15.8685 23.0017 16C23.0017 16.1315 22.9758 16.2618 22.9254 16.3833C22.875 16.5047 22.8011 16.6151 22.708 16.708L10.708 28.708C10.5202 28.8958 10.2655 29.0012 9.99996 29.0012C9.7344 29.0012 9.47973 28.8958 9.29196 28.708C9.10418 28.5202 8.99869 28.2655 8.99869 28C8.99869 27.7344 9.10418 27.4798 9.29196 27.292L20.586 16L9.29196 4.70799C9.19883 4.6151 9.12494 4.50474 9.07453 4.38325C9.02412 4.26176 8.99817 4.13152 8.99817 3.99999C8.99817 3.86845 9.02412 3.73821 9.07453 3.61672C9.12494 3.49523 9.19883 3.38488 9.29196 3.29199Z" fill="white" stroke="white" stroke-width="1.5"/>
</svg>
