<svg width="32" height="32" viewBox="0 0 32 32" fill="none" xmlns="http://www.w3.org/2000/svg">
<path fill-rule="evenodd" clip-rule="evenodd" d="M22.708 3.29199C22.6152 3.19886 22.5048 3.12497 22.3833 3.07456C22.2618 3.02415 22.1316 2.9982 22 2.9982C21.8685 2.9982 21.7383 3.02415 21.6168 3.07456C21.4953 3.12497 21.3849 3.19886 21.292 3.29199L9.29204 15.292C9.19892 15.3849 9.12503 15.4952 9.07462 15.6167C9.02421 15.7382 8.99826 15.8685 8.99826 16C8.99826 16.1315 9.02421 16.2618 9.07462 16.3833C9.12503 16.5047 9.19892 16.6151 9.29204 16.708L21.292 28.708C21.4798 28.8958 21.7345 29.0012 22 29.0012C22.2656 29.0012 22.5203 28.8958 22.708 28.708C22.8958 28.5202 23.0013 28.2655 23.0013 28C23.0013 27.7344 22.8958 27.4798 22.708 27.292L11.414 16L22.708 4.70799C22.8012 4.6151 22.8751 4.50474 22.9255 4.38325C22.9759 4.26176 23.0018 4.13152 23.0018 3.99999C23.0018 3.86845 22.9759 3.73821 22.9255 3.61672C22.8751 3.49523 22.8012 3.38488 22.708 3.29199Z" fill="white" stroke="white" stroke-width="1.5"/>
</svg>
