<svg width="36" height="32" viewBox="0 0 36 32" fill="none" xmlns="http://www.w3.org/2000/svg">
<rect width="35" height="32" transform="translate(1)" fill="white"/>
<path d="M1 6H30.1493" stroke="#9A9A9A" stroke-width="2" stroke-linecap="round"/>
<path d="M1 15.3023H14.4179" stroke="#9A9A9A" stroke-width="2" stroke-linecap="round"/>
<path d="M1 24.6046H14.4179" stroke="#9A9A9A" stroke-width="2" stroke-linecap="round"/>
<path d="M29.416 21.9938C30.3856 20.6635 30.8199 19.0142 30.632 17.3758C30.444 15.7374 29.6477 14.2308 28.4023 13.1573C27.157 12.0839 25.5544 11.5227 23.9152 11.5862C22.276 11.6497 20.7211 12.3332 19.5615 13.4998C18.402 14.6664 17.7233 16.2302 17.6614 17.8783C17.5994 19.5264 18.1586 21.1372 19.2272 22.3885C20.2958 23.6399 21.7949 24.4394 23.4247 24.6272C25.0544 24.815 26.6946 24.3771 28.017 23.4013H28.016C28.0454 23.4416 28.0781 23.4802 28.1142 23.5171L30.2899 25.7048C30.4777 25.8937 30.7324 25.9999 30.998 26C31.2637 26.0001 31.5185 25.8941 31.7064 25.7053C31.8943 25.5165 31.9999 25.2604 32 24.9934C32.0001 24.7263 31.8947 24.4701 31.7069 24.2812L29.5311 22.0935C29.4954 22.057 29.4569 22.0244 29.416 21.9938ZM29.6743 18.1237C29.6743 18.8509 29.5319 19.5709 29.2551 20.2428C28.9783 20.9146 28.5726 21.525 28.0612 22.0392C27.5498 22.5534 26.9426 22.9613 26.2744 23.2396C25.6061 23.5178 24.89 23.6611 24.1667 23.6611C23.4434 23.6611 22.7272 23.5178 22.059 23.2396C21.3908 22.9613 20.7836 22.5534 20.2722 22.0392C19.7607 21.525 19.355 20.9146 19.0782 20.2428C18.8015 19.5709 18.659 18.8509 18.659 18.1237C18.659 16.6551 19.2393 15.2466 20.2722 14.2082C21.3051 13.1697 22.706 12.5863 24.1667 12.5863C25.6274 12.5863 27.0283 13.1697 28.0612 14.2082C29.0941 15.2466 29.6743 16.6551 29.6743 18.1237Z" fill="#9A9A9A"/>
</svg>
