<svg width="28" height="28" viewBox="0 0 28 28" fill="none" xmlns="http://www.w3.org/2000/svg">
<path d="M22.7501 14.667L14.0001 23.333L5.25006 14.667C4.67291 14.1054 4.21831 13.4303 3.91486 12.6844C3.61142 11.9385 3.46571 11.1378 3.48692 10.3327C3.50812 9.52773 3.69578 8.73582 4.03807 8.00688C4.38037 7.27795 4.86988 6.62779 5.47579 6.09733C6.0817 5.56688 6.79088 5.16763 7.55867 4.92472C8.32646 4.68181 9.13623 4.6005 9.93699 4.68593C10.7377 4.77135 11.5121 5.02164 12.2114 5.42105C12.9107 5.82046 13.5197 6.36032 14.0001 7.00666C14.4825 6.36502 15.0922 5.82986 15.791 5.4347C16.4898 5.03953 17.2626 4.79285 18.0611 4.7101C18.8597 4.62735 19.6666 4.7103 20.4316 4.95378C21.1966 5.19726 21.9031 5.59601 22.5069 6.12508C23.1106 6.65415 23.5987 7.30216 23.9405 8.02853C24.2824 8.75491 24.4706 9.54402 24.4934 10.3465C24.5162 11.1489 24.3732 11.9475 24.0732 12.6921C23.7732 13.4367 23.3228 14.1114 22.7501 14.674" stroke="#FF0A0A" stroke-width="1.5" stroke-linecap="round" stroke-linejoin="round"/>
</svg>
