<svg width="28" height="28" viewBox="0 0 28 28" fill="none" xmlns="http://www.w3.org/2000/svg">
<path d="M22.75 14.667L14 23.333L5.25003 14.667C4.67288 14.1054 4.21828 13.4303 3.91483 12.6844C3.61139 11.9384 3.46568 11.1378 3.48689 10.3327C3.50809 9.52771 3.69575 8.7358 4.03804 8.00687C4.38034 7.27794 4.86985 6.62777 5.47576 6.09732C6.08167 5.56686 6.79085 5.16761 7.55864 4.9247C8.32643 4.68179 9.1362 4.60049 9.93695 4.68591C10.7377 4.77133 11.5121 5.02162 12.2114 5.42103C12.9107 5.82044 13.5196 6.36031 14 7.00664C14.4825 6.365 15.0922 5.82985 15.791 5.43468C16.4898 5.03951 17.2626 4.79283 18.0611 4.71008C18.8596 4.62733 19.6666 4.71029 20.4316 4.95377C21.1966 5.19724 21.9031 5.59599 22.5068 6.12507C23.1106 6.65414 23.5987 7.30214 23.9405 8.02852C24.2823 8.75489 24.4706 9.54401 24.4934 10.3465C24.5162 11.1489 24.3732 11.9475 24.0732 12.6921C23.7732 13.4367 23.3228 14.1114 22.75 14.674" stroke="#9A9A9A" stroke-width="1.5" stroke-linecap="round" stroke-linejoin="round"/>
</svg>
