<svg width="32" height="21" viewBox="0 0 32 21" fill="none" xmlns="http://www.w3.org/2000/svg">
<path d="M1 1H30.1493" stroke="#9A9A9A" stroke-width="2" stroke-linecap="round"/>
<path d="M1 10.3023H14.4179" stroke="#9A9A9A" stroke-width="2" stroke-linecap="round"/>
<path d="M1 19.6047H14.4179" stroke="#9A9A9A" stroke-width="2" stroke-linecap="round"/>
<path d="M29.416 16.9938C30.3856 15.6636 30.8199 14.0142 30.632 12.3758C30.444 10.7374 29.6477 9.23079 28.4023 8.15734C27.157 7.08388 25.5544 6.52278 23.9152 6.58628C22.276 6.64978 20.7211 7.3332 19.5615 8.49982C18.402 9.66644 17.7233 11.2302 17.6614 12.8783C17.5994 14.5264 18.1586 16.1372 19.2272 17.3886C20.2958 18.6399 21.7949 19.4394 23.4247 19.6272C25.0544 19.815 26.6946 19.3772 28.017 18.4013H28.016C28.0454 18.4416 28.0781 18.4802 28.1142 18.5171L30.2899 20.7048C30.4777 20.8937 30.7324 20.9999 30.998 21C31.2637 21.0001 31.5185 20.8941 31.7064 20.7053C31.8943 20.5166 31.9999 20.2605 32 19.9934C32.0001 19.7263 31.8947 19.4701 31.7069 19.2812L29.5312 17.0935C29.4954 17.0571 29.4569 17.0244 29.416 16.9938ZM29.6743 13.1237C29.6743 13.8509 29.5319 14.571 29.2551 15.2428C28.9783 15.9146 28.5726 16.5251 28.0612 17.0392C27.5498 17.5534 26.9426 17.9613 26.2744 18.2396C25.6061 18.5179 24.89 18.6611 24.1667 18.6611C23.4434 18.6611 22.7272 18.5179 22.059 18.2396C21.3908 17.9613 20.7836 17.5534 20.2722 17.0392C19.7607 16.5251 19.355 15.9146 19.0782 15.2428C18.8015 14.571 18.659 13.8509 18.659 13.1237C18.659 11.6551 19.2393 10.2467 20.2722 9.20821C21.3051 8.16975 22.706 7.58635 24.1667 7.58635C25.6274 7.58635 27.0283 8.16975 28.0612 9.20821C29.0941 10.2467 29.6743 11.6551 29.6743 13.1237Z" fill="#9A9A9A"/>
</svg>
